<svg width="136" height="48" viewBox="0 0 136 48" fill="none" xmlns="http://www.w3.org/2000/svg">
  <path
    d="M63.1366 25.8066C61.965 24.895 60.3233 24.3432 58.26 24.1687C56.365 24.0018 55.5366 23.6679 55.1766 23.4107C54.7166 23.0852 54.5016 22.7145 54.5016 22.2462C54.5016 21.7595 54.7183 21.4273 55.2016 21.1693C55.8016 20.8496 56.6283 20.6877 57.6583 20.6877C58.4791 20.6877 59.1508 20.8137 59.6583 21.0617C60.1678 21.3154 60.605 21.6942 60.9291 22.1627C61.1253 22.4586 61.3989 22.6949 61.72 22.8456C62.0575 23.0096 62.4282 23.0936 62.8033 23.091C63.1739 23.0982 63.5404 23.0121 63.8691 22.8406L63.9008 22.8231C64.4458 22.4992 64.7458 22.025 64.7458 21.4874C64.7458 21.1159 64.605 20.7361 64.3291 20.3621C63.6334 19.4164 62.7254 18.648 61.6783 18.119C60.6216 17.5873 59.3258 17.3177 57.8266 17.3177C56.4858 17.3177 55.2533 17.4988 54.16 17.8561C53.02 18.2292 52.1025 18.7852 51.4341 19.5081C50.7493 20.2308 50.3724 21.1923 50.3833 22.1886C50.3833 23.6303 51.05 24.8441 52.3683 25.7957C53.6183 26.6973 55.3208 27.2424 57.4358 27.416C58.6591 27.5204 59.5591 27.7909 60.1091 28.2208C60.6241 28.6223 60.8641 29.0664 60.8641 29.619C60.8641 30.1717 60.6058 30.5607 60.0308 30.8862C59.3575 31.2652 58.505 31.4572 57.4983 31.4572C56.6817 31.4678 55.8717 31.3104 55.1183 30.9948C54.465 30.7118 54.035 30.3845 53.8425 30.0347C53.656 29.68 53.3678 29.3893 53.015 29.2C52.6538 28.9979 52.247 28.8922 51.8333 28.8928C51.6853 28.8899 51.5374 28.9039 51.3925 28.9345C50.9815 29.0007 50.5962 29.1779 50.2783 29.4471C50.1227 29.5751 49.9969 29.7357 49.9097 29.9175C49.8225 30.0993 49.7759 30.298 49.7733 30.4997C49.7814 30.7433 49.8459 30.9816 49.9616 31.1959C50.5 32.2953 51.5 33.1911 52.9166 33.8572C54.2875 34.5008 55.8258 34.8272 57.4891 34.8272C58.7043 34.8356 59.9128 34.6464 61.0675 34.2671C62.2258 33.8789 63.1716 33.2796 63.8791 32.4865C64.6032 31.6847 64.9967 30.6375 64.98 29.5564C64.98 28.0196 64.3591 26.7582 63.1366 25.8066Z"
    fill="#3767B1" />
  <path
    d="M76.4034 21.5158C75.3019 20.8945 74.0565 20.5746 72.7925 20.5883C71.5243 20.5769 70.2749 20.8956 69.1667 21.5133C68.0874 22.1116 67.1907 22.9925 66.5725 24.0619C65.9454 25.153 65.6214 26.3925 65.6342 27.6515C65.6194 28.8947 65.9172 30.1216 66.5 31.2193C67.0598 32.2794 67.9004 33.1645 68.9294 33.7775C69.9585 34.3904 71.1362 34.7074 72.3334 34.6937C73.6859 34.7044 75.0087 34.2962 76.1209 33.525C76.2182 33.7256 76.3499 33.9076 76.51 34.0626C76.8941 34.4229 77.4005 34.6233 77.9267 34.6233C78.4529 34.6233 78.9593 34.4229 79.3434 34.0626C79.5318 33.879 79.6807 33.6588 79.781 33.4155C79.8813 33.1722 79.9309 32.9109 79.9267 32.6476V27.6523C79.9401 26.407 79.62 25.181 78.9997 24.1017C78.3795 23.0225 77.4817 22.1295 76.4 21.5158H76.4034ZM75.5959 29.3878C75.3273 29.8816 74.9291 30.2924 74.4442 30.5757C74.0736 30.7961 73.6627 30.9401 73.2358 30.9993C72.8089 31.0585 72.3744 31.0316 71.958 30.9203C71.5415 30.8091 71.1515 30.6156 70.8107 30.3513C70.4699 30.087 70.1852 29.7571 69.9734 29.3811C69.6793 28.8533 69.5306 28.2566 69.5425 27.6523C69.5315 27.0431 69.6807 26.4417 69.975 25.9084C70.251 25.4044 70.6593 24.9855 71.1558 24.6971C71.6522 24.4088 72.2179 24.2618 72.7917 24.2722C73.3717 24.2623 73.9434 24.4122 74.4442 24.7055C74.93 24.9902 75.3277 25.4039 75.5934 25.9009C75.8831 26.439 76.0295 27.0427 76.0184 27.654C76.0299 28.2588 75.8843 28.8563 75.5959 29.3878Z"
    fill="#3767B1" />
  <path
    d="M83.69 15.7066C83.4259 15.7049 83.164 15.7557 82.9196 15.856C82.6752 15.9563 82.453 16.1041 82.2659 16.2909C82.0749 16.474 81.923 16.6938 81.8192 16.9373C81.7154 17.1808 81.6619 17.4428 81.6619 17.7075C81.6619 17.9723 81.7154 18.2343 81.8192 18.4777C81.923 18.7212 82.0749 18.9411 82.2659 19.1242C82.6461 19.4977 83.1575 19.7069 83.69 19.7069C84.2226 19.7069 84.7339 19.4977 85.1142 19.1242C85.3049 18.941 85.4567 18.721 85.5603 18.4776C85.664 18.2341 85.7175 17.9722 85.7175 17.7075C85.7175 17.4429 85.664 17.1809 85.5603 16.9375C85.4567 16.694 85.3049 16.4741 85.1142 16.2909C84.9271 16.1041 84.7049 15.9563 84.4605 15.856C84.216 15.7557 83.9542 15.7049 83.69 15.7066V15.7066Z"
    fill="#3767B1" />
  <path
    d="M83.69 20.8446C83.1683 20.8351 82.6632 21.029 82.2816 21.3856C82.0883 21.5703 81.9357 21.7934 81.8335 22.0407C81.7313 22.2879 81.6819 22.5539 81.6883 22.8214V32.7937C81.6841 33.0568 81.7336 33.318 81.834 33.5612C81.9343 33.8044 82.0832 34.0245 82.2716 34.2078C82.6594 34.5717 83.1713 34.7735 83.7026 34.7717C84.234 34.77 84.7446 34.565 85.13 34.1987C85.3123 34.0137 85.456 33.7942 85.5525 33.553C85.6491 33.3117 85.6967 33.0536 85.6925 32.7937V22.8214C85.6989 22.557 85.6513 22.2941 85.5528 22.0488C85.4542 21.8035 85.3066 21.5809 85.1191 21.3948C84.9287 21.2135 84.7044 21.0717 84.4592 20.9773C84.214 20.8829 83.9526 20.8378 83.69 20.8446V20.8446Z"
    fill="#3767B1" />
  <path
    d="M98.525 21.5133C97.4158 20.896 96.1656 20.5776 94.8967 20.5892C93.6324 20.5754 92.3868 20.8952 91.285 21.5167C90.2033 22.1304 89.3056 23.0233 88.6853 24.1026C88.0651 25.1818 87.745 26.4079 87.7584 27.6531V37.8709C87.752 38.1385 87.8016 38.4045 87.9039 38.6517C88.0062 38.899 88.159 39.1221 88.3525 39.3067C88.7428 39.6556 89.248 39.8476 89.7711 39.8458C90.2942 39.8439 90.7981 39.6484 91.1859 39.2967C91.373 39.1105 91.5202 38.8881 91.6185 38.6429C91.7168 38.3977 91.7641 38.135 91.7575 37.8709V33.6552C92.0028 33.8122 92.2581 33.953 92.5217 34.0768C94.0558 34.8094 95.8127 34.9212 97.427 34.3889C99.0413 33.8567 100.388 32.7214 101.188 31.2193C101.772 30.122 102.07 28.8954 102.057 27.6523C102.069 26.3933 101.745 25.1539 101.118 24.0627C100.501 22.9932 99.6042 22.112 98.525 21.5133V21.5133ZM97.715 29.3812C97.2763 30.1291 96.5611 30.6739 95.7243 30.8975C94.8875 31.1211 93.9965 31.0055 93.2442 30.5757C92.7591 30.2927 92.3608 29.8818 92.0925 29.3878C91.8036 28.8559 91.658 28.2578 91.67 27.6523C91.6585 27.041 91.8049 26.4371 92.095 25.8993C92.3604 25.4021 92.7582 24.9883 93.2442 24.7039C93.6146 24.4822 94.0257 24.3373 94.453 24.2778C94.8804 24.2183 95.3154 24.2453 95.7321 24.3573C96.1488 24.4694 96.5389 24.6641 96.879 24.93C97.2192 25.1958 97.5027 25.5274 97.7125 25.9051C98.0072 26.4385 98.1566 27.0402 98.1458 27.6498C98.158 28.255 98.0093 28.8525 97.715 29.3812V29.3812Z"
    fill="#3767B1" />
  <path
    d="M114.212 21.4882C113.135 20.8914 111.907 20.5883 110.563 20.5883C109.205 20.5883 107.967 20.8905 106.884 21.4874C105.808 22.0711 104.917 22.9461 104.314 24.0126C103.709 25.0761 103.402 26.3008 103.402 27.6523C103.402 28.9879 103.709 30.2051 104.314 31.2694C104.917 32.3357 105.808 33.2107 106.883 33.7946C107.967 34.3907 109.204 34.6937 110.563 34.6937C111.922 34.6937 113.159 34.3907 114.235 33.793C115.305 33.2065 116.189 32.3325 116.79 31.2694C117.395 30.2051 117.702 28.9879 117.702 27.6523C117.702 26.2991 117.39 25.0736 116.776 24.0076C116.169 22.9476 115.281 22.0759 114.212 21.4882V21.4882ZM113.378 29.4187C113.12 29.9078 112.728 30.3131 112.248 30.5874C111.732 30.8669 111.154 31.0132 110.567 31.0132C109.98 31.0132 109.402 30.8669 108.886 30.5874C108.402 30.3109 108.005 29.9043 107.74 29.4137C107.449 28.8746 107.304 28.269 107.317 27.6565C107.304 27.0386 107.451 26.4279 107.742 25.8834C108.005 25.3899 108.401 24.9808 108.886 24.703C109.402 24.423 109.98 24.2764 110.567 24.2764C111.154 24.2764 111.732 24.423 112.248 24.703C112.729 24.9779 113.12 25.3853 113.377 25.8767C113.663 26.4254 113.806 27.0375 113.793 27.6565C113.805 28.2694 113.661 28.8752 113.375 29.417L113.378 29.4187Z"
    fill="#3767B1" />
  <path
    d="M130.199 27.2817C129.317 26.6021 127.925 26.0963 125.949 25.7381C125.127 25.5845 124.5 25.4293 124.088 25.2765C123.634 25.1096 123.527 24.9877 123.525 24.986C123.473 24.9149 123.45 24.8271 123.46 24.7397C123.46 24.6955 123.46 24.622 123.703 24.5068C124.062 24.3399 124.557 24.2514 125.172 24.2514C125.648 24.2391 126.122 24.2954 126.582 24.4184C126.951 24.5374 127.293 24.7283 127.588 24.9802C128.085 25.3937 128.712 25.6184 129.357 25.6146C129.788 25.6261 130.213 25.5099 130.578 25.2807L130.622 25.2506C131.251 24.7848 131.382 24.2623 131.382 23.9066C131.382 23.4692 131.203 23.0485 130.85 22.6545C130.257 21.9958 129.452 21.4774 128.458 21.1134C127.5 20.762 126.412 20.5834 125.222 20.5834C124.274 20.5787 123.332 20.7232 122.429 21.0116C121.504 21.3138 120.739 21.7779 120.157 22.3923C119.535 23.0379 119.195 23.9041 119.211 24.8007C119.211 27.0596 121.068 28.5263 124.734 29.1616C126.112 29.3962 126.74 29.6466 127.023 29.8152C127.382 30.0289 127.382 30.1909 127.382 30.2694C127.382 30.3478 127.382 30.5098 127.042 30.6934C126.668 30.8963 126.065 31.004 125.292 31.004C124.719 31.0078 124.148 30.9103 123.608 30.716C123.108 30.5315 122.739 30.3261 122.517 30.1057L122.486 30.0757C121.897 29.5464 121.303 29.4354 120.907 29.4354C120.45 29.4354 119.979 29.5932 119.502 29.9096C118.934 30.2927 118.633 30.8278 118.633 31.4564C118.634 31.702 118.687 31.9447 118.79 32.1676C118.893 32.3905 119.043 32.5884 119.23 32.7478C119.888 33.3405 120.791 33.8205 121.911 34.1728C123.038 34.5213 124.212 34.6952 125.392 34.6887C126.642 34.6887 127.738 34.5034 128.653 34.1377C129.614 33.7554 130.361 33.2111 130.872 32.5208C131.382 31.847 131.656 31.0243 131.652 30.1792C131.657 29.008 131.167 28.0271 130.199 27.2817Z"
    fill="#3767B1" />
  <path
    d="M25.25 43.403C22.5233 43.3379 19.7917 43.2786 17.1108 42.7151C13.9933 42.0607 11.0967 40.8995 8.68582 38.7341C7.05835 37.2967 5.91443 35.3903 5.41082 33.2762C5.34749 33.0166 5.26916 32.9181 5.00749 32.9423C4.76749 32.9665 4.50749 32.9599 4.38832 32.6994C4.26082 32.4231 4.44499 32.2211 4.60916 32.0257C4.83499 31.7578 5.06499 31.494 5.28499 31.221C5.43249 31.0382 5.42666 30.913 5.15832 30.8353C4.85582 30.7477 4.48332 30.6684 4.49166 30.251C4.49999 29.8336 4.86166 29.7042 5.18082 29.6132C5.97117 29.4038 6.66038 28.9175 7.12332 28.2425C7.40109 27.8534 7.7386 27.5108 8.12332 27.2274C8.43332 26.9953 8.40416 26.8033 8.21416 26.502C6.27999 23.43 6.49749 19.3788 8.74416 16.548C9.59298 15.48 10.6767 14.6229 11.9108 14.0437C12.3042 13.8567 12.4175 13.6981 12.3217 13.2289C12.1308 12.2948 12.1883 11.3306 12.2842 10.3815C12.4367 8.87886 12.7667 7.423 13.4733 6.07983C14.1117 4.86689 15.0217 3.9361 16.4333 3.69903C17.395 3.53708 18.2358 3.85763 18.8675 4.61729C19.6817 5.59231 19.84 6.75851 19.7733 7.9798C19.7617 8.18933 19.7533 8.39719 19.7508 8.61006C19.7508 8.98738 19.845 9.04164 20.1992 8.87886C20.4492 8.76533 20.5783 8.55914 20.6842 8.32373C20.9167 7.81868 21.0833 7.28442 21.3667 6.79607C22.1383 5.45291 24.0142 5.23753 25.0475 6.39037C25.3734 6.73968 25.6109 7.16222 25.74 7.62251C25.88 8.14759 26.0008 8.22021 26.5458 8.18265C27.3725 8.12505 28.0025 8.48568 28.515 9.10091C28.9267 9.59594 28.9583 9.60178 29.4808 9.36053C29.985 9.12512 30.1417 8.83795 30.0692 8.33625C29.9133 7.27023 30.0433 6.24261 30.5217 5.26925C31.2717 3.74577 32.9383 3.22487 34.4208 4.06216C35.6058 4.72998 36.2542 5.82271 36.74 7.04651C37.3408 8.54912 37.3808 10.1285 37.4133 11.7113C37.425 12.2723 37.4617 12.8316 37.4675 13.3925C37.4675 13.6755 37.6408 13.7623 37.8642 13.8542C39.2808 14.4385 40.5308 15.2549 41.5225 16.4478C42.5142 17.6407 42.9733 19.0499 43.2025 20.5483C43.5067 22.5292 43.3025 24.4292 42.2217 26.1722C42.0433 26.4594 42.085 26.7416 42.275 26.9962C42.497 27.3034 42.7808 27.5607 43.108 27.7514C43.4352 27.9422 43.7987 28.0623 44.175 28.1039C44.4867 28.1432 44.675 27.9954 44.75 27.6865C44.7925 27.5146 44.8333 27.3192 45.0708 27.2992C45.3083 27.2792 45.4242 27.4378 45.5342 27.6014C45.9958 28.2892 45.7408 29.0314 44.9433 29.2409C44.5642 29.3411 44.5092 29.4838 44.6267 29.8586C45.2375 31.8137 44.8142 33.6486 43.8967 35.4066C42.5408 38.0036 40.3683 39.7058 37.785 40.9437C35.5975 41.9922 33.2658 42.5298 30.8808 42.8963C29.0125 43.181 27.1492 43.4915 25.25 43.403Z"
    fill="#511B11" />
  <path
    d="M42.1358 29.579C42.725 30.2602 42.9875 31.0632 43.0183 31.9531C42.9929 32.116 42.9929 32.2819 43.0183 32.4448C42.97 33.7587 42.305 34.7989 41.5442 35.7981C40.115 37.6772 38.1875 38.8284 36.0108 39.6198C34.5375 40.0371 33.0108 40.0672 31.5058 40.2375C30.9667 40.2984 30.4225 40.321 29.8825 40.3794C29.6192 40.4078 29.3558 40.4378 29.095 40.361C28.845 40.1473 29.1017 40.053 29.21 39.9553C29.83 39.3952 30.3183 38.7499 30.5775 37.9435C30.7398 37.3961 30.8327 36.8304 30.8542 36.2598C30.9567 35.9701 31.1758 35.7981 31.4433 35.6754C32.235 35.4892 32.8483 34.6361 32.8233 33.7404C32.8192 33.5734 32.8067 33.4065 32.915 33.262C33.4983 32.7236 33.4983 32.4573 32.9525 31.8788C32.5192 31.418 31.985 31.241 31.3783 31.211C31.1983 31.2026 31.0133 31.2318 30.845 31.1367C29.6275 29.478 27.9992 28.4128 25.9758 28.1632C23.3 27.8334 21.0592 28.7342 19.4225 30.9597C19.1325 31.3546 18.9225 31.7945 18.6842 32.2244C18.4608 32.3505 18.2033 32.368 17.9658 32.4473C17.6775 32.5441 17.4317 32.6977 17.2792 32.9674C17.0392 33.3973 17.1867 33.808 17.6475 33.9624C17.9175 34.0526 18.1408 34.1995 18.2117 34.4775C18.345 35.0059 18.6183 35.4567 18.9242 35.8966C19.0161 36.0214 19.0756 36.1671 19.0975 36.3207C19.05 37.5445 19.5342 38.5521 20.3525 39.4253C20.4633 39.5438 20.6108 39.6573 20.5317 39.8585C20.37 39.9487 20.1983 39.8977 20.04 39.866C17.6233 39.3852 15.2992 38.6297 13.1933 37.3107C12.4433 36.8424 11.74 36.304 11.1492 35.6412C10.2325 34.6144 9.69915 33.4215 9.63832 32.0316C9.64801 31.8785 9.63023 31.725 9.58582 31.5783C9.53915 30.8762 9.77332 30.6942 10.4267 30.9689C11.805 31.5482 13.2325 31.8337 14.7283 31.7461C16.1542 31.6626 17.4783 31.2736 18.6808 30.4789C19.0233 30.2526 19.2208 29.8678 19.5883 29.6733C20.4308 29.1532 21.28 28.649 21.9767 27.9203C23.3158 26.517 23.9892 24.8249 24.2125 22.9266C24.2517 22.5927 24.2717 22.2588 24.3 21.9248C24.7367 21.6844 25.2342 21.6744 25.705 21.5575C25.8525 21.5208 25.9383 21.5859 25.9375 21.7587C25.9367 21.9315 25.9058 22.0926 25.9633 22.2596C26.135 24.5494 26.845 26.6046 28.5267 28.2475C29.7592 29.4521 31.2517 30.1208 32.9242 30.4321L33.3758 30.5156C34.5617 31.4046 35.9242 31.3145 37.2767 31.1834C38.6564 31.0603 40.0042 30.6979 41.26 30.1124C41.575 29.963 41.7833 29.6541 42.1358 29.579Z"
    fill="#EE6A23" />
  <path
    d="M32.8608 23.2922C32.1275 23.9 31.475 23.92 31.0333 23.3957C30.5917 22.8715 30.7167 22.3055 31.415 21.7262C30.8775 21.4883 30.3842 21.5592 29.9033 21.8247C29.435 22.0851 29.1158 22.4842 28.8675 22.9508C28.6192 23.4174 28.515 23.9442 28.4292 24.5068C27.3517 22.313 27.7292 18.7844 30.3967 16.6407C31.6858 15.5941 33.3129 15.0567 34.9706 15.1301C36.6283 15.2036 38.2018 15.8827 39.3937 17.0391C40.5856 18.1956 41.3134 19.7493 41.4395 21.4067C41.5657 23.0641 41.0814 24.7104 40.0783 26.0345C38.0292 28.7467 34.3567 29.4571 31.62 27.9929C33.2092 26.7541 33.3567 25.1304 32.8608 23.2922Z"
    fill="white" />
  <path
    d="M21.7117 24.6938C21.6733 24.1779 21.6033 23.738 21.4117 23.2939C21.12 23.6036 20.7958 23.8231 20.3567 23.7747C20.21 23.7593 20.068 23.7144 19.9392 23.6427C19.8103 23.5709 19.6972 23.4739 19.6067 23.3573C19.19 22.8514 19.3233 22.2921 19.9783 21.7545C19.5125 21.3764 18.5375 21.6552 18.0517 22.1444C17.34 22.8615 17.0467 23.748 17.0308 24.7322C17.0083 26.0578 17.3758 27.2174 18.5592 27.9879C16.3667 29.5222 12.4025 28.7041 10.4033 26.3099C9.31558 25.0088 8.75332 23.347 8.8272 21.6514C8.90107 19.9559 9.60572 18.3495 10.8025 17.1482C13.2808 14.6605 17.3333 14.4827 19.995 16.7467C22.63 18.9839 22.9033 22.6636 21.7117 24.6938Z"
    fill="white" />
  <path
    d="M14.5333 9.94404C14.6467 8.35795 15.2092 6.9839 16.4633 5.95294C16.9067 5.58814 17.1992 5.6616 17.4558 6.17249C18.0042 7.26271 18.0392 8.4264 17.9558 9.61179C17.9175 10.1686 17.835 10.7229 17.8025 11.2814C17.7492 12.1996 17.8942 12.3482 18.8192 12.4C20.0142 12.7381 21.1608 12.3165 21.8708 11.2563C22.5292 10.2729 23.0733 9.23447 23.2933 8.05242C23.3317 7.84456 23.3333 7.63503 23.355 7.4255C23.3767 7.21597 23.4625 7.07155 23.7117 7.18257C24.19 7.43301 24.05 7.92136 24.1033 8.30703C24.1933 8.95565 24.1867 9.61847 24.2208 10.2754C24.2358 10.5826 24.2767 10.8748 24.6317 10.9742C25 11.0768 25.2467 10.9199 25.4217 10.5943C25.6177 10.2211 25.8807 9.88717 26.1975 9.60929C26.5367 9.31545 26.8817 9.37722 27.0967 9.77124C27.3467 10.2295 27.3292 10.7154 27.1983 11.1987C27.115 11.5076 26.9975 11.8081 26.8867 12.1103C26.7517 12.4776 26.7858 12.8048 27.1192 13.0461C27.4267 13.269 27.8525 13.2072 28.1467 12.8992C28.4838 12.5581 28.7188 12.1292 28.825 11.6612C28.915 11.2505 29.0633 10.9892 29.5458 11.0501C29.7017 11.0693 29.8792 11.005 30.0333 10.9474C30.3817 10.8197 30.5433 10.9182 30.5175 11.2989C30.5085 11.4102 30.5118 11.5222 30.5275 11.6328C30.5775 11.9567 30.7275 12.2088 31.0492 12.3365C31.3708 12.4643 31.6208 12.3774 31.8467 12.1454C32.1679 11.8962 32.391 11.5414 32.4767 11.1436C32.6992 10.2462 32.8742 9.3455 32.8358 8.41555C32.835 8.24776 32.8483 8.0802 32.8758 7.91468C32.9508 7.34786 33.0333 6.78104 32.8842 6.21256C32.8417 6.0456 32.8342 5.87864 32.945 5.73089C33.2692 5.58229 33.5067 5.74508 33.7258 5.95544C34.5483 6.74264 34.9417 7.74856 35.1333 8.83795C35.3667 10.1736 35.2867 11.5026 35.0383 12.8265C34.8033 13.0119 34.5267 12.9209 34.2683 12.9351C31.7575 13.0745 29.4042 13.7123 27.3658 15.2399C26.375 15.9667 25.6305 16.9803 25.2325 18.1441C25.1783 18.3027 25.1358 18.4697 24.9658 18.5523C24.8975 18.5682 24.83 18.5882 24.7617 18.5991C23.7683 18.7535 23.7533 18.7351 23.2692 17.862C21.9708 15.5246 20.0267 14.022 17.4117 13.4443C16.8858 13.3274 16.3358 13.3216 15.7975 13.264C15.47 12.8892 15.3908 12.4292 15.4642 11.9701C15.5383 11.4959 15.3808 11.1837 14.9858 10.9558C14.5908 10.7279 14.4 10.4098 14.5333 9.94404Z"
    fill="#EE6A23" />
  <path
    d="M29.005 40.2843C30.2975 40.2392 31.5825 40.1173 32.8658 39.9645C33.9133 39.841 34.9625 39.7341 36.0108 39.6198C34.9033 40.2216 33.6875 40.4905 32.4733 40.7584C30.4958 41.1933 28.5317 41.6867 26.5275 42.0039C25.4183 42.1792 24.325 42.1241 23.2317 41.9563C20.94 41.6032 18.64 41.2985 16.3917 40.7042C14.0108 40.0772 11.7783 39.1373 9.91415 37.4836C8.64082 36.3549 7.56832 35.0677 7.20832 33.333C6.83332 31.5199 7.42999 30.0097 8.77082 28.8051C9.63915 28.0238 9.37915 28.124 10.2242 28.7676C11.7733 29.9496 13.5167 30.6166 15.4642 30.6534C16.7783 30.6776 18.0408 30.3629 19.24 29.8102C19.3533 29.7585 19.4725 29.7192 19.5883 29.6733C18.755 30.9255 17.4383 31.3721 16.0825 31.6768C14.1333 32.1176 12.235 31.8479 10.3958 31.0866C9.74415 30.817 9.66915 30.8804 9.66749 31.6075C9.76499 31.7336 9.64832 31.903 9.75082 32.0249C9.83416 33.7512 10.6142 35.1245 11.9108 36.2172C12.5466 36.7626 13.2376 37.2399 13.9725 37.6413C15.4494 38.4374 17.0211 39.0427 18.65 39.4428C19.2708 39.5939 19.9 39.7241 20.52 39.8602C20.7083 39.7542 20.8442 39.8919 20.9792 39.9737C23.335 41.3878 25.7792 41.4079 28.2892 40.4512C28.5175 40.3611 28.7325 40.1941 29.005 40.2843Z"
    fill="#CC5B27" />
  <path
    d="M42.1358 29.579C41.7825 30.0473 41.2608 30.276 40.7467 30.4722C38.9967 31.14 37.1817 31.4798 35.3059 31.3445C34.5892 31.2928 33.855 31.1726 33.3759 30.5148C34.4667 30.6124 35.5525 30.6074 36.6259 30.3478C38.025 30.008 39.2792 29.3928 40.34 28.4044C40.715 28.0547 40.8058 28.0597 41.1733 28.4203C41.5375 28.7683 41.8605 29.157 42.1358 29.579Z"
    fill="#CC5B27" />
  <path
    d="M24.9683 18.5523C25.2574 17.5556 25.7806 16.6428 26.4942 15.8902C27.8225 14.4986 29.5067 13.7381 31.3233 13.2648C32.5342 12.9492 33.7775 12.7639 35.0416 12.8265C35.0725 13.1997 34.86 13.2598 34.5416 13.2523C32.7967 13.2097 31.1583 13.567 29.7083 14.5879C28.4758 15.4528 27.6083 16.6306 26.9375 17.9513C26.7058 18.4071 26.4375 18.6082 25.9308 18.554C25.6133 18.5181 25.2892 18.5498 24.9683 18.5523Z"
    fill="#CC5B27" />
  <path
    d="M23.7142 7.18172C23.5117 7.1692 23.4592 7.27272 23.4525 7.46305C23.3967 9.05581 22.6592 10.389 21.74 11.6077C21.14 12.4033 20.2342 12.718 19.2192 12.6646C19.01 12.6537 18.9442 12.4976 18.8217 12.3991C19.2792 12.1645 19.3617 11.7497 19.3325 11.2947C19.31 10.9508 19.3992 10.7421 19.7875 10.6895C21.2742 10.4866 22.2042 9.62514 22.6442 8.20433C22.7192 7.96475 22.8108 7.73018 22.9108 7.49811C23.0692 7.12496 23.3333 7.00392 23.7142 7.18172Z"
    fill="#CC5B27" />
  <path
    d="M32.9475 5.73087C32.9791 5.9813 33.015 6.22506 33.0408 6.47299C33.15 7.51313 32.9191 8.53741 32.8975 9.57254C32.8841 10.1995 32.6958 10.8038 32.53 11.4041C32.4333 11.7538 32.29 12.0969 31.8491 12.147C32.02 11.5986 31.9508 11.0418 31.9025 10.4866C31.8083 9.40141 31.6483 8.31619 31.87 7.23515C32 6.58819 32.1891 5.94457 32.9475 5.73087Z"
    fill="#CC5B27" />
  <path
    d="M25.9633 22.2562C25.9475 22.2337 25.92 22.2137 25.9158 22.1895C25.8183 21.6252 25.8183 21.6235 25.2416 21.7646C24.9308 21.8405 24.6241 21.9315 24.3 21.9248C24.2683 21.5375 24.2508 21.1477 24.2008 20.7611C24.1591 20.4373 24.31 20.3321 24.5991 20.3321C24.9475 20.3321 25.2952 20.329 25.6425 20.3229C25.9758 20.3179 26.1141 20.4949 26.0508 20.7987C25.9491 21.2829 26 21.7712 25.9633 22.2562Z"
    fill="#DD5C27" />
  <path
    d="M14.5333 9.94403C14.4741 10.394 14.7 10.6728 15.0725 10.8782C15.505 11.1169 15.7066 11.4416 15.5675 11.9726C15.4508 12.4175 15.69 12.8382 15.8 13.264C14.6333 13.2222 14.7933 13.4727 14.5966 12.2572C14.4733 11.4951 14.3691 10.7204 14.5333 9.94403Z"
    fill="#CC5B27" />
  <path
    d="M29.2567 24.8399C29.2785 24.6787 29.3102 24.5189 29.3517 24.3616C29.3718 24.2855 29.4191 24.2195 29.4844 24.1758C29.5498 24.1322 29.6288 24.1139 29.7067 24.1245C29.8692 24.1387 30.0025 24.2122 30.025 24.3992C30.0648 24.6916 30.1921 24.9652 30.39 25.1839C30.5433 25.3617 30.6042 25.5562 30.4358 25.7473C30.3673 25.8366 30.2712 25.9007 30.1625 25.9296C30.0538 25.9584 29.9387 25.9504 29.835 25.9068C29.455 25.7682 29.2583 25.451 29.2567 24.8399Z"
    fill="#FDFDFC" />
  <path
    d="M17.8575 24.8616C17.8575 24.8341 17.8733 24.7514 17.8825 24.668C17.9091 24.4067 17.9525 24.1354 18.2825 24.1253C18.6125 24.1153 18.6291 24.3758 18.6683 24.6212C18.7033 24.8466 18.8541 25.0227 18.9975 25.1955C19.1408 25.3683 19.1858 25.5495 19.0433 25.7306C18.9815 25.8165 18.895 25.8814 18.7953 25.9166C18.6957 25.9518 18.5877 25.9556 18.4858 25.9276C18.0741 25.8283 17.8516 25.4752 17.8575 24.8616Z"
    fill="#FDFDFC" />
  <path
    d="M43.0183 32.4448C42.9752 32.3701 42.9525 32.2853 42.9525 32.1989C42.9525 32.1126 42.9752 32.0278 43.0183 31.9531C43.0591 32.1144 43.0591 32.2834 43.0183 32.4448V32.4448Z"
    fill="#D6784E" />
  <path
    d="M31.4608 35.7405C31.2608 35.8816 31.0442 36.0051 30.925 36.2322C30.7542 36.5269 30.4458 36.6087 30.1583 36.7097C29.643 36.8954 29.096 36.9766 28.5492 36.9484C28.2583 36.9309 28.1042 37.0461 28.0742 37.3416C27.9508 38.5395 27.2233 38.8401 26.275 38.8751C25.2267 38.9135 24.1758 38.8968 23.1267 38.8801C22.5775 38.871 22.22 38.5312 22.0975 37.9535C21.98 37.4017 21.9792 37.4126 21.4 37.3633C20.7117 37.3041 20.0408 37.1738 19.4458 36.789C19.2683 36.673 19.0917 36.5594 19.0292 36.3382C19.0008 36.1663 18.8917 36.0377 18.7992 35.8983C18.515 35.47 18.2158 35.0502 18.1258 34.5234C18.0808 34.2613 17.9025 34.1252 17.645 34.0668C17.0675 33.9357 16.8633 33.4499 17.155 32.9331C17.3542 32.5817 17.67 32.3955 18.0483 32.302C18.25 32.2511 18.4567 32.2186 18.6608 32.1768C19.1025 32.0491 19.89 32.282 20.1525 32.6184C20.395 32.929 20.3958 33.1635 20.1525 33.4808C19.3825 33.7521 19.3825 33.7521 19.7075 34.5309C20.0325 35.3098 20.8208 35.7681 21.7908 35.7096C22.6792 35.657 23.4183 35.3265 23.8592 34.4992C24.085 34.076 24.0675 33.9983 23.6875 33.702C22.7992 33.0008 22.0208 32.2127 21.6042 31.125C21.485 30.064 21.7758 29.5489 22.79 29.2626C24.2633 28.8452 25.7492 28.7918 27.1817 29.4387C28.0058 29.811 28.1908 30.3211 27.9033 31.1918C27.7644 31.6051 27.5714 31.9981 27.3292 32.3605C26.9825 32.82 26.5917 33.2444 26.1625 33.6277C25.925 33.8456 25.9258 34.0317 26.13 34.273C27.0342 35.3415 28.7633 35.647 29.9633 34.9216C30.6192 34.5251 30.9 33.9082 30.9125 33.1519C30.9175 32.8672 30.8175 32.7612 30.5333 32.8655C30.4119 32.903 30.2832 32.9101 30.1583 32.8864C29.645 32.6643 29.525 32.3563 29.8092 31.9013C30.0592 31.5065 30.3308 31.1267 30.8658 31.1075C31.7767 31.0657 32.6058 31.2318 33.2183 31.994C33.6408 32.5199 33.5517 32.9957 32.9533 33.3055C32.5658 33.2704 32.4533 33.4599 32.4275 33.8314C32.3877 34.3366 32.2237 34.8242 31.95 35.2505C31.8304 35.4523 31.6623 35.6208 31.4608 35.7405Z"
    fill="#511B11" />
  <path
    d="M27.2242 32.3387C27.4642 31.8838 27.7333 31.4447 27.8608 30.9355C28.0275 30.2768 27.9092 29.9337 27.3058 29.6149C26.3333 29.0973 25.2775 29.0355 24.2075 29.114C23.8315 29.141 23.4583 29.1988 23.0917 29.2868C21.8892 29.5831 21.6308 29.9488 21.7075 31.1801C21.6058 31.8587 21.9108 32.3997 22.3025 32.9072C22.5167 33.1835 22.74 33.4507 22.8117 33.808C22.8833 34.1653 22.7767 34.4232 22.4458 34.5593C21.8575 34.7997 21.2517 34.8373 20.6525 34.6002C20.502 34.5409 20.3655 34.4509 20.2516 34.3359C20.1377 34.2209 20.0489 34.0835 19.9908 33.9323C19.9192 33.7579 19.8842 33.5784 20.09 33.4549C20.33 33.055 20.2517 32.7169 19.84 32.4982C19.4748 32.3016 19.07 32.1904 18.6558 32.1726C19.2717 30.5398 20.4175 29.4045 21.9767 28.6749C25.1208 27.204 28.0967 28.1289 30.3567 30.3378C30.5845 30.5471 30.7593 30.8078 30.8667 31.0983C30.4867 31.3011 30.1275 31.5273 29.9042 31.9172C29.6542 32.3479 29.7275 32.58 30.18 32.8046C30.6133 32.8622 30.6883 32.9949 30.5133 33.4073C30.2867 33.9365 29.8525 34.2254 29.3317 34.4048C28.5417 34.677 27.7292 34.6503 26.93 34.4983C26.2633 34.3723 26.1442 33.9733 26.5492 33.4407C26.8142 33.0984 27.0758 32.7536 27.2242 32.3387Z"
    fill="#FFF9F7" />
  <path
    d="M19.0283 36.3382C19.7925 37.0136 20.7125 37.2565 21.7008 37.2415C22.06 37.2365 22.155 37.38 22.1883 37.6922C22.2791 38.5471 22.5216 38.7541 23.355 38.7775C24.3483 38.8084 25.3416 38.8017 26.3333 38.7499C27.4466 38.6915 27.885 38.2916 27.9675 37.1997C27.9925 36.8591 28.1183 36.8191 28.3967 36.8358C29.2802 36.8861 30.1591 36.6754 30.9242 36.2297C30.9567 37.7323 30.4483 38.9987 29.3125 39.9979C29.2083 40.0906 29.1075 40.1866 29.0041 40.2818C28.2458 40.5789 27.4883 40.877 26.6833 41.0397C25.805 41.2128 24.9046 41.243 24.0166 41.1291C23.0525 41.013 22.1383 40.7718 21.2925 40.2751C21.0425 40.1282 20.8158 39.9253 20.52 39.8577C20.5108 39.6832 20.3608 39.6072 20.2625 39.4954C19.4633 38.5955 18.9 37.6063 19.0283 36.3382Z"
    fill="#FFF9F7" />
  <path
    d="M31.4608 35.7405C32.0333 35.0727 32.3125 34.2938 32.3775 33.4081C32.415 32.8563 32.7608 33.3246 32.9608 33.3004C32.8625 33.6176 32.9866 33.9466 32.8775 34.2738C32.7472 34.6836 32.5417 35.0655 32.2716 35.3999C32.1774 35.5221 32.0532 35.6177 31.9111 35.6774C31.769 35.7371 31.6138 35.7588 31.4608 35.7405V35.7405Z"
    fill="#DD5C27" />
  <path
    d="M9.74997 32.0299C9.60997 31.9122 9.68664 31.7511 9.66664 31.6125C9.80664 31.7277 9.73081 31.888 9.74997 32.0299Z"
    fill="#EF6426" />
  <path
    d="M23.8392 14.5044C23.5059 14.466 23.1842 14.4143 23.0892 14.0219C23.0059 13.6705 23.23 13.4718 23.4942 13.3224C24.1168 12.9701 24.6505 12.4795 25.0542 11.8882C25.1342 11.7736 25.2299 11.6707 25.3384 11.5827C25.7175 11.2722 26.0525 11.3899 26.1717 11.8732C26.2027 11.9816 26.2145 12.0946 26.2067 12.2071C26.1042 13.163 24.9934 14.3258 24.0442 14.4811C23.9784 14.4886 23.9092 14.4953 23.8392 14.5044Z"
    fill="#EC6923" />
  <path
    d="M27.3758 13.9894C27.3758 14.365 27.03 14.7298 26.6633 14.7348C26.31 14.7348 25.9283 14.3592 25.9275 14.0019C25.9267 13.6446 26.2817 13.3065 26.6775 13.309C27.0733 13.3115 27.3733 13.5954 27.3758 13.9894Z"
    fill="#EC6923" />
  <path
    d="M23.615 11.0601C23.7829 11.0662 23.9416 11.138 24.0572 11.26C24.1728 11.3821 24.2361 11.5447 24.2333 11.7129C24.2377 11.7969 24.2243 11.8809 24.1942 11.9593C24.164 12.0378 24.1178 12.1091 24.0584 12.1685C23.999 12.2279 23.9278 12.2742 23.8494 12.3043C23.771 12.3344 23.6872 12.3476 23.6033 12.3432C23.4352 12.3436 23.2734 12.2793 23.1513 12.1635C23.0293 12.0478 22.9563 11.8894 22.9475 11.7213C22.9514 11.5458 23.0232 11.3788 23.1478 11.2554C23.2723 11.1321 23.4399 11.062 23.615 11.0601V11.0601Z"
    fill="#EC6923" />
  <path
    d="M20.09 33.459C19.9725 33.8865 20.2441 34.3648 20.7175 34.5251C21.2781 34.7118 21.8873 34.6889 22.4325 34.4608C22.67 34.3665 22.77 34.1911 22.725 33.8965C22.6575 33.444 22.3483 33.156 22.0983 32.8313C21.8091 32.454 21.665 32.0266 21.5516 31.5791C21.5301 31.5051 21.5337 31.4259 21.5619 31.3542C21.5901 31.2824 21.6413 31.222 21.7075 31.1826C22.1991 32.2536 22.9942 33.0634 23.9333 33.7404C24.1392 33.8881 24.1792 34.0167 24.0942 34.2412C23.7033 35.2814 22.8091 35.844 21.5833 35.8065C20.4516 35.7714 19.7958 35.2538 19.47 34.1369C19.3108 33.5909 19.375 33.5208 20.09 33.459Z"
    fill="#DBDCDB" />
  <path
    d="M25.7017 37.3984C25.7425 36.7815 25.6017 36.4801 25.3133 36.4618C25.025 36.4434 24.88 36.6913 24.8742 37.2732C24.8658 38.0245 24.8658 38.0195 24.1133 38.0754C23.8483 38.0929 23.5822 38.0755 23.3217 38.0236C23.02 37.966 22.9192 37.749 22.8825 37.4852C22.8433 37.2072 22.9775 37.0436 23.2383 36.9518C23.9134 36.7105 24.5047 36.2795 24.9417 35.7105C25.0833 35.5318 25.1642 35.5335 25.325 35.6721C25.7473 36.0394 26.2293 36.3316 26.75 36.5361C26.9583 36.6195 27.25 36.6304 27.2267 36.966C27.2033 37.3016 27.1875 37.678 26.8358 37.8842C26.7008 37.9597 26.552 38.0073 26.3983 38.0242C26.2446 38.0412 26.089 38.027 25.9408 37.9827C25.595 37.8951 25.715 37.5645 25.7017 37.3984Z"
    fill="#F6F3F1" />
  <path
    d="M27.2242 32.3388C27.2492 32.8179 26.9375 33.1418 26.6725 33.4716C26.2433 34.0075 26.3058 34.2763 26.995 34.3949C27.92 34.5543 28.8467 34.5768 29.7217 34.1202C30.0175 33.9597 30.2562 33.7112 30.405 33.409C30.5483 33.1427 30.6092 32.878 30.1842 32.8088C30.3217 32.7937 30.4867 32.8221 30.5908 32.7562C30.9825 32.5057 31.03 32.7052 31.0317 33.0442C31.0392 34.2346 30.4283 35.0477 29.2708 35.3123C28.0333 35.5953 26.9442 35.3056 26.0692 34.3615C25.6958 33.9591 25.7142 33.8798 26.1183 33.5359C26.5225 33.1919 26.8808 32.7645 27.2242 32.3388Z"
    fill="#DBDCDB" />
</svg>